#Comment line ignore any data following # character 
#Hierarchical Translation and Rotation (.htr) file 
[Header]	
#Header keywords are followed by a single value 
FileType HTR		#Single word string
DataType HTRS		#Translation followed by rotation and scale data
FileVersion 1		#integer
NumSegments 84		#integer
NumFrames 2		#integer
DataFrameRate 30		#integer, data frame rate in this file
EulerRotationOrder ZYX
CalibrationUnits mm
RotationUnits Degrees
GlobalAxisofGravity Y
BoneLengthAxis Y
ScaleFactor 1.00
[SegmentNames&Hierarchy]
#CHILD	PARENT
MASTER GLOBAL
root MASTER
chest root
L_mid_tent01 root
R_mid_tent01 root
spine01 root
Bip01_Neck chest
L_humerus chest
R_humerus chest
weapon_bone chest
Bip01_Head Bip01_Neck
eye_left_bone Bip01_Head
eye_right_bone Bip01_Head
L_forearm L_humerus
L_front_hand L_forearm
L_weapon_bone L_forearm
L_front_hand01_01 L_front_hand
L_front_hand02_01 L_front_hand
L_front_hand03_01 L_front_hand
L_front_hand01_02 L_front_hand01_01
L_front_hand02_02 L_front_hand02_01
L_front_hand03_02 L_front_hand03_01
R_forearm R_humerus
R_front_hand R_forearm
R_weapon_bone R_forearm
R_front_hand01_01 R_front_hand
R_front_hand02_01 R_front_hand
R_front_hand03_01 R_front_hand
R_front_hand01_02 R_front_hand01_01
R_front_hand02_02 R_front_hand02_01
R_front_hand03_02 R_front_hand03_01
null_rope01_connect L_mid_tent01
Rope1_Seg01 null_rope01_connect
Rope1_Seg02 Rope1_Seg01
Rope1_Seg03 Rope1_Seg02
Rope1_Seg04 Rope1_Seg03
Rope1_Seg05 Rope1_Seg04
Rope1_Seg06 Rope1_Seg05
Rope1_Seg07 Rope1_Seg06
Rope1_Seg09 Rope1_Seg07
L_mid_hand01 Rope1_Seg09
L_mid_hand02 Rope1_Seg09
L_mid_hand03 Rope1_Seg09
null_rope02_connect R_mid_tent01
Rope2_Seg01 null_rope02_connect
Rope2_Seg02 Rope2_Seg01
Rope2_Seg03 Rope2_Seg02
Rope2_Seg04 Rope2_Seg03
Rope2_Seg05 Rope2_Seg04
Rope2_Seg06 Rope2_Seg05
Rope2_Seg07 Rope2_Seg06
Rope2_Seg09 Rope2_Seg07
R_mid_hand01 Rope2_Seg09
R_mid_hand02 Rope2_Seg09
R_mid_hand03 Rope2_Seg09
spine02 spine01
spine03 spine02
pelvis spine03
null_rope03_connect pelvis
null_rope04_connect pelvis
Rope3_Seg01 null_rope03_connect
Rope3_Seg02 Rope3_Seg01
Rope3_Seg03 Rope3_Seg02
Rope3_Seg04 Rope3_Seg03
Rope3_Seg05 Rope3_Seg04
Rope3_Seg06 Rope3_Seg05
Rope3_Seg07 Rope3_Seg06
Rope3_Seg08 Rope3_Seg07
Rope3_Seg09 Rope3_Seg08
R_rear_hand01 Rope3_Seg09
R_rear_hand02 Rope3_Seg09
R_rear_hand03 Rope3_Seg09
Rope4_Seg01 null_rope04_connect
Rope4_Seg02 Rope4_Seg01
Rope4_Seg03 Rope4_Seg02
Rope4_Seg04 Rope4_Seg03
Rope4_Seg05 Rope4_Seg04
Rope4_Seg06 Rope4_Seg05
Rope4_Seg07 Rope4_Seg06
Rope4_Seg08 Rope4_Seg07
Rope4_Seg09 Rope4_Seg08
L_rear_hand01 Rope4_Seg09
L_rear_hand02 Rope4_Seg09
L_rear_hand03 Rope4_Seg09
[BasePosition]
#SegmentName Tx, Ty, Tz, Rx, Ry, Rz, BoneLength
MASTER 0.000000 0.000000 0.000000 -90.000000 0.000000 0.000000 10.000000 
root 0.000000 0.000000 0.000000 0.000000 0.000000 0.000000 10.000000 
chest 0.000000 0.000000 0.000000 0.000000 0.000000 0.000000 10.000000 
L_mid_tent01 0.000000 0.000000 0.000000 0.000000 0.000000 0.000000 10.000000 
R_mid_tent01 0.000000 0.000000 0.000000 0.000000 0.000000 0.000000 10.000000 
spine01 0.000000 0.000000 0.000000 0.000000 0.000000 0.000000 10.000000 
Bip01_Neck 0.000000 0.000000 0.000000 0.000000 0.000000 0.000000 10.000000 
L_humerus 0.000000 0.000000 0.000000 0.000000 0.000000 0.000000 10.000000 
R_humerus 0.000000 0.000000 0.000000 0.000000 0.000000 0.000000 10.000000 
weapon_bone 0.000000 0.000000 0.000000 0.000000 0.000000 0.000000 10.000000 
Bip01_Head 0.000000 0.000000 0.000000 0.000000 0.000000 0.000000 10.000000 
eye_left_bone 0.000000 0.000000 0.000000 0.000000 0.000000 0.000000 10.000000 
eye_right_bone 0.000000 0.000000 0.000000 0.000000 0.000000 0.000000 10.000000 
L_forearm 0.000000 0.000000 0.000000 0.000000 0.000000 0.000000 10.000000 
L_front_hand 0.000000 0.000000 0.000000 0.000000 0.000000 0.000000 10.000000 
L_weapon_bone 0.000000 0.000000 0.000000 0.000000 0.000000 0.000000 10.000000 
L_front_hand01_01 0.000000 0.000000 0.000000 0.000000 0.000000 0.000000 10.000000 
L_front_hand02_01 0.000000 0.000000 0.000000 0.000000 0.000000 0.000000 10.000000 
L_front_hand03_01 0.000000 0.000000 0.000000 0.000000 0.000000 0.000000 10.000000 
L_front_hand01_02 0.000000 0.000000 0.000000 0.000000 0.000000 0.000000 10.000000 
L_front_hand02_02 0.000000 0.000000 0.000000 0.000000 0.000000 0.000000 10.000000 
L_front_hand03_02 0.000000 0.000000 0.000000 0.000000 0.000000 0.000000 10.000000 
R_forearm 0.000000 0.000000 0.000000 0.000000 0.000000 0.000000 10.000000 
R_front_hand 0.000000 0.000000 0.000000 0.000000 0.000000 0.000000 10.000000 
R_weapon_bone 0.000000 0.000000 0.000000 0.000000 0.000000 0.000000 10.000000 
R_front_hand01_01 0.000000 0.000000 0.000000 0.000000 0.000000 0.000000 10.000000 
R_front_hand02_01 0.000000 0.000000 0.000000 0.000000 0.000000 0.000000 10.000000 
R_front_hand03_01 0.000000 0.000000 0.000000 0.000000 0.000000 0.000000 10.000000 
R_front_hand01_02 0.000000 0.000000 0.000000 0.000000 0.000000 0.000000 10.000000 
R_front_hand02_02 0.000000 0.000000 0.000000 0.000000 0.000000 0.000000 10.000000 
R_front_hand03_02 0.000000 0.000000 0.000000 0.000000 0.000000 0.000000 10.000000 
null_rope01_connect 0.000000 0.000000 0.000000 0.000000 0.000000 0.000000 10.000000 
Rope1_Seg01 0.000000 0.000000 0.000000 0.000000 0.000000 0.000000 10.000000 
Rope1_Seg02 0.000000 0.000000 0.000000 0.000000 0.000000 0.000000 10.000000 
Rope1_Seg03 0.000000 0.000000 0.000000 0.000000 0.000000 0.000000 10.000000 
Rope1_Seg04 0.000000 0.000000 0.000000 0.000000 0.000000 0.000000 10.000000 
Rope1_Seg05 0.000000 0.000000 0.000000 0.000000 0.000000 0.000000 10.000000 
Rope1_Seg06 0.000000 0.000000 0.000000 0.000000 0.000000 0.000000 10.000000 
Rope1_Seg07 0.000000 0.000000 0.000000 0.000000 0.000000 0.000000 10.000000 
Rope1_Seg09 0.000000 0.000000 0.000000 0.000000 0.000000 0.000000 10.000000 
L_mid_hand01 0.000000 0.000000 0.000000 0.000000 0.000000 0.000000 10.000000 
L_mid_hand02 0.000000 0.000000 0.000000 0.000000 0.000000 0.000000 10.000000 
L_mid_hand03 0.000000 0.000000 0.000000 0.000000 0.000000 0.000000 10.000000 
null_rope02_connect 0.000000 0.000000 0.000000 0.000000 0.000000 0.000000 10.000000 
Rope2_Seg01 0.000000 0.000000 0.000000 0.000000 0.000000 0.000000 10.000000 
Rope2_Seg02 0.000000 0.000000 0.000000 0.000000 0.000000 0.000000 10.000000 
Rope2_Seg03 0.000000 0.000000 0.000000 0.000000 0.000000 0.000000 10.000000 
Rope2_Seg04 0.000000 0.000000 0.000000 0.000000 0.000000 0.000000 10.000000 
Rope2_Seg05 0.000000 0.000000 0.000000 0.000000 0.000000 0.000000 10.000000 
Rope2_Seg06 0.000000 0.000000 0.000000 0.000000 0.000000 0.000000 10.000000 
Rope2_Seg07 0.000000 0.000000 0.000000 0.000000 0.000000 0.000000 10.000000 
Rope2_Seg09 0.000000 0.000000 0.000000 0.000000 0.000000 0.000000 10.000000 
R_mid_hand01 0.000000 0.000000 0.000000 0.000000 0.000000 0.000000 10.000000 
R_mid_hand02 0.000000 0.000000 0.000000 0.000000 0.000000 0.000000 10.000000 
R_mid_hand03 0.000000 0.000000 0.000000 0.000000 0.000000 0.000000 10.000000 
spine02 0.000000 0.000000 0.000000 0.000000 0.000000 0.000000 10.000000 
spine03 0.000000 0.000000 0.000000 0.000000 0.000000 0.000000 10.000000 
pelvis 0.000000 0.000000 0.000000 0.000000 0.000000 0.000000 10.000000 
null_rope03_connect 0.000000 0.000000 0.000000 0.000000 0.000000 0.000000 10.000000 
null_rope04_connect 0.000000 0.000000 0.000000 0.000000 0.000000 0.000000 10.000000 
Rope3_Seg01 0.000000 0.000000 0.000000 0.000000 0.000000 0.000000 10.000000 
Rope3_Seg02 0.000000 0.000000 0.000000 0.000000 0.000000 0.000000 10.000000 
Rope3_Seg03 0.000000 0.000000 0.000000 0.000000 0.000000 0.000000 10.000000 
Rope3_Seg04 0.000000 0.000000 0.000000 0.000000 0.000000 0.000000 10.000000 
Rope3_Seg05 0.000000 0.000000 0.000000 0.000000 0.000000 0.000000 10.000000 
Rope3_Seg06 0.000000 0.000000 0.000000 0.000000 0.000000 0.000000 10.000000 
Rope3_Seg07 0.000000 0.000000 0.000000 0.000000 0.000000 0.000000 10.000000 
Rope3_Seg08 0.000000 0.000000 0.000000 0.000000 0.000000 0.000000 10.000000 
Rope3_Seg09 0.000000 0.000000 0.000000 0.000000 0.000000 0.000000 10.000000 
R_rear_hand01 0.000000 0.000000 0.000000 0.000000 0.000000 0.000000 10.000000 
R_rear_hand02 0.000000 0.000000 0.000000 0.000000 0.000000 0.000000 10.000000 
R_rear_hand03 0.000000 0.000000 0.000000 0.000000 0.000000 0.000000 10.000000 
Rope4_Seg01 0.000000 0.000000 0.000000 0.000000 0.000000 0.000000 10.000000 
Rope4_Seg02 0.000000 0.000000 0.000000 0.000000 0.000000 0.000000 10.000000 
Rope4_Seg03 0.000000 0.000000 0.000000 0.000000 0.000000 0.000000 10.000000 
Rope4_Seg04 0.000000 0.000000 0.000000 0.000000 0.000000 0.000000 10.000000 
Rope4_Seg05 0.000000 0.000000 0.000000 0.000000 0.000000 0.000000 10.000000 
Rope4_Seg06 0.000000 0.000000 0.000000 0.000000 0.000000 0.000000 10.000000 
Rope4_Seg07 0.000000 0.000000 0.000000 0.000000 0.000000 0.000000 10.000000 
Rope4_Seg08 0.000000 0.000000 0.000000 0.000000 0.000000 0.000000 10.000000 
Rope4_Seg09 0.000000 0.000000 0.000000 0.000000 0.000000 0.000000 10.000000 
L_rear_hand01 0.000000 0.000000 0.000000 0.000000 0.000000 0.000000 10.000000 
L_rear_hand02 0.000000 0.000000 0.000000 0.000000 0.000000 0.000000 10.000000 
L_rear_hand03 0.000000 0.000000 0.000000 0.000000 0.000000 0.000000 10.000000 
#Beginning of Data. Separated by tabs
#Fr	Tx	Ty	Tz	Rx	Ry	Rz	SF
[MASTER]
34 5963.791992 8380.597656 -77.133621 0.001660 0.001660 0.001660 10286.262695
35 6122.866699 8626.739258 -123.414970 0.001660 0.001660 0.001660 10579.477539
[root]
34 -16.501465 -59.720505 1497.476807 -91.629829 -26.987452 -90.056046 1498.758057
35 -16.500854 -51.543705 1491.480347 -91.640015 -25.164255 -89.946671 1492.461914
[chest]
34 -84.512650 -34.090519 0.000000 -10.301896 15.464631 161.880249 91.129311
35 -84.512650 -34.090519 0.000000 -9.221489 13.535540 162.795441 91.129311
[L_mid_tent01]
34 27.297663 22.179008 -249.919296 -11.631632 28.644764 47.311069 252.382111
35 27.297619 22.179001 -249.919327 -13.650611 26.631763 41.966122 252.382126
[R_mid_tent01]
34 23.228794 24.509907 226.238495 -179.435272 -39.790710 57.434235 228.744751
35 23.228794 24.509907 226.238495 -176.242203 -37.185425 51.742386 228.744751
[spine01]
34 -0.361383 -0.195265 0.000000 0.001978 0.001264 24.824909 0.410763
35 -0.361383 -0.195265 0.000000 0.001973 0.001271 24.401724 0.410763
[Bip01_Neck]
34 165.484543 71.581718 0.000119 176.643677 -1.657967 43.431911 180.302734
35 165.484543 71.581718 0.000119 176.643677 -1.657967 43.431911 180.302734
[L_humerus]
34 -13.983130 -135.272980 -120.471481 -5.813168 67.960190 84.200859 181.680161
35 -13.983130 -135.272980 -120.471481 -5.731516 68.189545 84.290695 181.680161
[R_humerus]
34 -13.983309 -135.273102 125.287651 27.400549 -68.953468 68.261635 184.909012
35 -13.983309 -135.273102 125.287651 27.520147 -69.179955 68.138260 184.909012
[weapon_bone]
34 235.964890 -300.705902 0.000000 0.000000 -89.951546 -128.212341 382.234833
35 235.964890 -300.705902 0.000000 0.000000 -89.951546 -128.212341 382.234833
[Bip01_Head]
34 213.328186 186.042130 7.558804 5.200446 6.151311 -43.834991 283.156738
35 213.328293 186.042084 7.558861 5.200446 6.151311 -43.834991 283.156769
[eye_left_bone]
34 -24.626970 125.451866 -64.772606 0.000000 -90.000000 -99.840431 143.318359
35 -24.626970 125.451866 -64.772606 0.000000 -90.000000 -99.840431 143.318359
[eye_right_bone]
34 -24.626970 125.451866 64.327362 0.000000 -89.965736 80.156380 143.117676
35 -24.626970 125.451866 64.327362 0.000000 -89.965736 80.156380 143.117676
[L_forearm]
34 322.776093 0.000000 -0.000119 0.000402 -0.002313 -109.730682 322.776093
35 322.776093 0.000000 -0.000119 0.000401 -0.002313 -109.650063 322.776093
[L_front_hand]
34 241.149185 -0.042021 -3.300071 -178.667953 -1.835447 -27.422350 241.171753
35 241.149185 -0.042021 -3.300071 -178.667953 -1.835447 -27.422350 241.171753
[L_weapon_bone]
34 156.183838 0.000000 0.000000 0.000014 0.000007 0.000001 156.183838
35 156.183838 0.000000 0.000000 0.000014 0.000007 0.000001 156.183838
[L_front_hand01_01]
34 86.095154 20.947098 -0.655860 -0.366594 -0.477154 75.385574 88.609184
35 86.095154 20.947098 -0.655860 -0.366594 -0.477154 75.385574 88.609184
[L_front_hand02_01]
34 86.935165 -11.437475 24.513514 154.399796 -59.883835 -61.369587 91.046425
35 86.935165 -11.437475 24.513514 154.399796 -59.883835 -61.369587 91.046425
[L_front_hand03_01]
34 86.637497 -14.123976 -20.424902 -153.913849 58.118122 -62.702866 90.126129
35 86.637497 -14.123976 -20.424902 -153.913849 58.118122 -62.702866 90.126129
[L_front_hand01_02]
34 71.020905 -0.000179 0.000030 0.000331 -0.002324 -106.206635 71.020905
35 71.020905 -0.000179 0.000030 0.000332 -0.002324 -106.240639 71.020905
[L_front_hand02_02]
34 71.020927 -0.000119 0.000060 0.000331 -0.002324 -106.206635 71.020927
35 71.020927 -0.000119 0.000060 0.000332 -0.002324 -106.240639 71.020927
[L_front_hand03_02]
34 71.020905 -0.000060 0.000060 0.000331 -0.002324 -106.206635 71.020905
35 71.020905 -0.000060 0.000060 0.000332 -0.002324 -106.240639 71.020905
[R_forearm]
34 322.776428 -0.000060 0.000030 0.201923 0.065714 -108.378181 322.776428
35 322.776428 -0.000060 0.000030 0.201970 0.065567 -108.294846 322.776428
[R_front_hand]
34 238.847015 -0.006795 2.210259 -2.635298 -10.645461 -26.312506 238.857239
35 238.847015 -0.006795 2.210259 -2.635298 -10.645461 -26.312506 238.857239
[R_weapon_bone]
34 155.664093 0.002503 -0.000030 0.003487 0.001180 -90.988930 155.664078
35 155.664093 0.002503 -0.000030 0.003487 0.001180 -90.988930 155.664078
[R_front_hand01_01]
34 87.624611 14.231146 22.918642 -154.633499 -59.950619 61.746044 91.683487
35 87.624611 14.231146 22.918642 -154.633499 -59.950619 61.746044 91.683487
[R_front_hand02_01]
34 89.356956 14.367283 -19.491137 154.602661 58.302849 63.744389 92.579636
35 89.356956 14.367283 -19.491137 154.602661 58.302849 63.744389 92.579636
[R_front_hand03_01]
34 87.286232 -22.307278 -0.143439 0.162155 -0.423168 -75.767921 90.091743
35 87.286232 -22.307278 -0.143439 0.162155 -0.423168 -75.767921 90.091743
[R_front_hand01_02]
34 71.020905 0.000060 0.000119 0.002323 -0.000334 106.381714 71.020905
35 71.020905 0.000060 0.000119 0.002323 -0.000334 106.381714 71.020905
[R_front_hand02_02]
34 71.020844 -0.000030 -0.000119 0.002323 -0.000334 106.381714 71.020836
35 71.020844 -0.000030 -0.000119 0.002323 -0.000334 106.381714 71.020836
[R_front_hand03_02]
34 71.020905 0.000000 0.000030 0.002323 -0.000334 106.381714 71.020905
35 71.020905 0.000000 0.000030 0.002323 -0.000334 106.381714 71.020905
[null_rope01_connect]
34 328.732483 0.000000 -0.000238 -134.374481 -57.689541 -158.791428 328.732483
35 328.732483 0.000000 -0.000238 -136.234634 -58.788273 -153.656235 328.732483
[Rope1_Seg01]
34 -0.000031 0.000007 0.000126 80.171570 -26.551350 -149.761932 0.000130
35 -0.000032 0.000006 0.000130 71.384590 -25.961008 -140.553146 0.000134
[Rope1_Seg02]
34 139.999863 -0.000179 0.000000 -2.906528 10.894293 -8.846377 139.999863
35 139.999863 -0.000179 0.000000 -4.500953 10.872849 -6.360988 139.999863
[Rope1_Seg03]
34 139.999924 0.000060 -0.000060 106.914276 -9.305190 -107.587364 139.999924
35 139.999924 0.000060 -0.000060 -18.682236 18.606569 -7.707589 139.999924
[Rope1_Seg04]
34 139.999924 -0.000060 -0.000119 -10.899707 -34.543125 28.505188 139.999924
35 139.999924 -0.000060 -0.000119 110.935066 30.479355 -134.236511 139.999924
[Rope1_Seg05]
34 139.999832 0.000119 -0.000060 -0.370738 -1.538769 0.842545 139.999832
35 139.999832 0.000119 -0.000060 -1.478102 -11.629401 12.565714 139.999832
[Rope1_Seg06]
34 139.999954 0.000119 -0.000060 -0.153459 -0.616119 0.333849 139.999954
35 139.999954 0.000119 -0.000060 -0.077920 -1.322994 1.323163 139.999954
[Rope1_Seg07]
34 139.999985 0.000060 0.000000 -0.003296 -0.037915 0.021443 139.999985
35 139.999985 0.000060 0.000000 0.001651 -0.032963 0.031336 139.999985
[Rope1_Seg09]
34 121.602913 0.000119 -0.000089 -89.793175 -1.359789 0.847147 121.602913
35 121.602913 0.000119 -0.000089 -89.793175 -1.359789 0.847147 121.602913
[L_mid_hand01]
34 103.859421 1.038730 8.195221 130.544373 -67.584534 -38.866943 104.187431
35 103.859421 1.038730 8.195221 130.544373 -67.584534 -38.866943 104.187431
[L_mid_hand02]
34 105.572853 -4.139662 -10.864139 -168.923172 43.409309 -73.498886 106.211075
35 105.572853 -4.139662 -10.864139 -168.923172 43.409309 -73.498886 106.211075
[L_mid_hand03]
34 104.641464 17.579376 -3.913581 -6.012627 17.808174 74.893669 106.179977
35 104.641464 17.579376 -3.913581 -6.012627 17.808174 74.893669 106.179977
[null_rope02_connect]
34 328.732849 0.000179 -0.000119 -120.296738 51.631779 0.656673 328.732849
35 328.732849 0.000179 -0.000119 -121.555023 53.987988 -3.406790 328.732849
[Rope2_Seg01]
34 0.000070 0.000027 0.000000 -77.265739 22.057413 -28.761223 0.000075
35 0.000071 0.000023 0.000000 -69.801361 20.041344 -30.543537 0.000074
[Rope2_Seg02]
34 139.999741 -0.000060 -0.000119 -24.956581 -2.751287 12.009326 139.999756
35 139.999741 -0.000060 -0.000119 -31.130100 1.336044 8.711394 139.999756
[Rope2_Seg03]
34 140.000107 0.000030 0.000000 -8.950592 -5.550217 8.070723 140.000107
35 140.000107 0.000030 0.000000 -17.162195 -1.298049 7.720964 140.000107
[Rope2_Seg04]
34 139.999802 0.000000 -0.000060 -6.804695 -13.550134 12.245194 139.999802
35 139.999802 0.000000 -0.000060 -8.016698 -9.873507 9.646591 139.999802
[Rope2_Seg05]
34 139.999985 -0.000060 0.000119 -2.699527 -13.755692 9.280811 139.999985
35 139.999985 -0.000060 0.000119 -0.010132 -18.295000 7.045973 139.999985
[Rope2_Seg06]
34 139.999893 -0.000030 -0.000119 -0.622060 -5.859191 3.763201 139.999893
35 139.999893 -0.000030 -0.000119 -0.239145 -7.998434 3.514156 139.999893
[Rope2_Seg07]
34 139.999893 0.000060 -0.000060 -0.271452 -3.441473 2.172199 139.999893
35 139.999893 0.000060 -0.000060 -0.137098 -4.473581 2.031455 139.999893
[Rope2_Seg09]
34 121.338966 0.000089 -0.000060 33.793236 -1.359788 -0.847141 121.338966
35 121.338966 0.000089 -0.000060 33.793236 -1.359788 -0.847141 121.338966
[R_mid_hand01]
34 104.680779 11.144459 -10.335981 -16.212063 45.237247 70.462852 105.778534
35 104.680779 11.144459 -10.335981 -16.212063 45.237247 70.462852 105.778534
[R_mid_hand02]
34 104.070427 2.443552 8.231699 49.067368 -67.749771 39.286453 104.424065
35 104.070427 2.443552 8.231699 49.067368 -67.749771 39.286453 104.424065
[R_mid_hand03]
34 106.028137 -11.221827 -5.996406 -177.101105 15.551026 -76.585571 106.788818
35 106.028137 -11.221827 -5.996406 -177.101105 15.551026 -76.585571 106.788818
[spine02]
34 129.756927 0.001550 0.000119 0.389093 -4.041821 -13.366076 129.756927
35 129.756927 0.001550 0.000119 0.381701 -4.042590 -13.249553 129.756927
[spine03]
34 78.613930 0.081661 -4.898738 1.913843 3.823783 16.755245 78.766457
35 78.613922 0.081657 -4.898730 1.908422 3.827088 16.683422 78.766441
[pelvis]
34 169.435242 0.051022 0.000000 -0.061343 -0.179928 14.646231 169.435257
35 169.435242 0.051022 0.000000 -0.061143 -0.179997 14.519097 169.435257
[null_rope03_connect]
34 -1.257226 -2.466202 137.391083 -125.735420 -89.419868 -160.129700 137.418976
35 -1.257226 -2.466202 137.391083 0.000000 -89.492935 72.841324 137.418976
[null_rope04_connect]
34 -1.259640 -2.480268 -137.844437 -125.735420 -89.419868 -160.129700 137.872513
35 -1.259640 -2.480268 -137.844437 0.000000 -89.492935 72.841324 137.872513
[Rope3_Seg01]
34 -0.000003 -0.000517 -0.000153 -132.613281 -18.410206 -73.538216 0.000539
35 -0.000003 -0.000530 -0.000153 -131.053711 -10.273292 -76.609863 0.000552
[Rope3_Seg02]
34 139.999924 -0.000119 0.000060 0.924615 -5.745286 -1.614579 139.999924
35 139.999924 -0.000119 0.000060 0.446388 -4.685965 -2.036247 139.999924
[Rope3_Seg03]
34 139.999924 -0.000119 0.000119 0.212588 -2.565077 -3.451611 139.999924
35 139.999924 -0.000119 0.000119 0.154924 -2.704980 -4.183187 139.999924
[Rope3_Seg04]
34 139.999924 0.000119 0.000000 1.416548 -4.759077 0.497233 139.999924
35 139.999924 0.000119 0.000000 0.778009 -3.781683 -0.132881 139.999924
[Rope3_Seg05]
34 139.999924 -0.000238 0.000060 4.838197 -14.073239 10.639213 139.999924
35 139.999924 -0.000238 0.000060 2.422595 -9.093383 10.892427 139.999924
[Rope3_Seg06]
34 139.999893 -0.000119 -0.000060 4.204463 -13.482562 12.123119 139.999893
35 139.999893 -0.000119 -0.000060 1.590655 -8.065062 10.341552 139.999893
[Rope3_Seg07]
34 139.999771 0.000060 -0.000119 2.706019 -8.940310 9.388204 139.999771
35 139.999771 0.000060 -0.000119 0.892510 -6.218575 8.177502 139.999771
[Rope3_Seg08]
34 139.999985 -0.000060 0.000000 1.254994 -2.760385 3.237163 139.999985
35 139.999985 -0.000060 0.000000 0.634268 -2.421540 3.317964 139.999985
[Rope3_Seg09]
34 90.185997 -0.000179 -0.000060 89.793228 -1.359877 -0.847183 90.185997
35 90.185997 -0.000179 -0.000060 89.793228 -1.359877 -0.847183 90.185997
[R_rear_hand01]
34 103.366196 -6.073594 -10.757982 -177.714203 24.565960 -73.910950 104.101845
35 103.366196 -6.073594 -10.757982 -177.714203 24.565960 -73.910950 104.101845
[R_rear_hand02]
34 100.509819 12.039542 -7.992327 -12.874829 36.868488 72.167213 101.543350
35 100.509819 12.039542 -7.992327 -12.874829 36.868488 72.167213 101.543350
[R_rear_hand03]
34 101.539970 5.215704 5.435467 71.484581 -71.816628 21.513813 101.819031
35 101.539970 5.215704 5.435467 71.484581 -71.816628 21.513813 101.819031
[Rope4_Seg01]
34 0.000000 -0.001014 -0.000278 48.618015 0.300308 -113.720276 0.001051
35 0.000000 -0.001043 -0.000282 47.823780 5.329154 -113.226456 0.001081
[Rope4_Seg02]
34 139.999985 0.000060 0.000119 0.189606 -2.099959 -0.268951 139.999985
35 139.999985 0.000060 0.000119 0.260154 -0.930599 1.057958 139.999985
[Rope4_Seg03]
34 139.999924 0.000000 -0.000238 1.117374 -6.481015 1.469134 139.999924
35 139.999924 0.000000 -0.000238 0.724201 -2.830666 3.407777 139.999924
[Rope4_Seg04]
34 139.999985 0.000000 0.000119 -2.721098 -2.813881 -9.612738 139.999985
35 139.999985 0.000000 0.000119 0.919986 -3.359656 3.795017 139.999985
[Rope4_Seg05]
34 139.999802 -0.000060 -0.000119 -23.528936 31.796717 -40.565697 139.999802
35 139.999802 -0.000060 -0.000119 -11.836152 22.144423 -34.403996 139.999802
[Rope4_Seg06]
34 139.999924 0.000000 0.000060 -0.505183 10.646617 -8.258124 139.999924
35 139.999924 0.000000 0.000060 -0.689328 8.478601 -10.035270 139.999924
[Rope4_Seg07]
34 139.999802 0.000000 0.000000 0.324412 2.535032 -1.960119 139.999802
35 139.999802 0.000000 0.000000 0.220482 3.091722 -3.629385 139.999802
[Rope4_Seg08]
34 139.999924 0.000000 0.000119 -1.447465 0.001681 0.001639 139.999924
35 139.999924 0.000000 0.000119 -1.419315 0.381837 -0.453156 139.999924
[Rope4_Seg09]
34 90.185791 0.000060 0.000060 -135.617828 2.228885 0.850567 90.185791
35 90.185791 0.000060 0.000060 -135.617828 2.228885 0.850567 90.185791
[L_rear_hand01]
34 101.696655 -8.392275 -7.654577 -12.874829 -36.868488 107.832764 102.329041
35 101.696655 -8.392275 -7.654577 -12.874829 -36.868488 107.832764 102.329041
[L_rear_hand02]
34 102.726799 -1.568258 5.773216 71.484581 71.816628 158.486160 102.900848
35 102.726799 -1.568258 5.773216 71.484581 71.816628 158.486160 102.900848
[L_rear_hand03]
34 104.552910 9.721220 -10.420293 -177.714203 -24.565960 -106.089035 105.519653
35 104.552910 9.721220 -10.420293 -177.714203 -24.565960 -106.089035 105.519653
